<svg width="50" height="50" viewBox="0 0 50 50" fill="none" xmlns="http://www.w3.org/2000/svg">
<path d="M37.7939 5.76172H31.2299C30.9794 2.54297 28.2821 0 25 0C21.7181 0 19.0207 2.54297 18.7701 5.76172H12.2062C8.49065 5.76172 5.4679 8.78447 5.4679 12.5V19.6289C5.4679 21.3117 6.41916 22.7759 7.81165 23.514V43.0664C7.81165 46.8896 10.9221 50 14.7452 50H35.2547C39.0779 50 42.1883 46.8896 42.1883 43.0664V23.5139C43.5809 22.7758 44.5321 21.3116 44.5321 19.6289V12.5C44.5322 8.78447 41.5094 5.76172 37.7939 5.76172ZM35.3525 41.1132V39.6484C35.3525 37.2253 33.3811 35.2539 30.9579 35.2539H19.0421C16.619 35.2539 14.6476 37.2253 14.6476 39.6484V41.1132H10.7413V24.0234H16.3094V30.0781C16.3094 30.8871 16.9653 31.543 17.7742 31.543C18.5832 31.543 19.2391 30.8871 19.2391 30.0781V24.0234H30.7624V30.0781C30.7624 30.8871 31.4183 31.543 32.2273 31.543C33.0363 31.543 33.6921 30.8871 33.6921 30.0781V24.0234H39.2586V41.1132H35.3525ZM32.4228 41.1132H17.5773V39.6484C17.5773 38.8407 18.2344 38.1836 19.0421 38.1836H30.9579C31.7657 38.1836 32.4228 38.8407 32.4228 39.6484V41.1132ZM25 2.92969C26.6653 2.92969 28.0477 4.16152 28.2849 5.76172H21.7152C21.9524 4.16152 23.3349 2.92969 25 2.92969ZM8.39758 12.5C8.39758 10.3999 10.1061 8.69141 12.2062 8.69141H37.7939C39.894 8.69141 41.6025 10.3999 41.6025 12.5V19.6289C41.6025 20.4366 40.9453 21.0938 40.1376 21.0938H33.6922V18.1641C33.6922 17.3551 33.0364 16.6992 32.2274 16.6992C31.4184 16.6992 30.7625 17.3551 30.7625 18.1641V21.0938H19.2392V18.1641C19.2392 17.3551 18.5833 16.6992 17.7743 16.6992C16.9654 16.6992 16.3095 17.3551 16.3095 18.1641V21.0938H9.86243C9.05471 21.0938 8.39758 20.4366 8.39758 19.6289V12.5ZM35.2548 47.0703H14.7453C12.8743 47.0703 11.2994 45.7802 10.8624 44.0429H39.1378C38.7007 45.7802 37.1258 47.0703 35.2548 47.0703V47.0703Z" fill="#726A5F"/>
</svg>
