<svg width="50" height="50" viewBox="0 0 50 50" fill="none" xmlns="http://www.w3.org/2000/svg">
<path fill-rule="evenodd" clip-rule="evenodd" d="M25 4.16663C16.9375 4.16663 10.4166 10.6875 10.4166 18.75C10.4166 29.6875 25 45.8333 25 45.8333C25 45.8333 39.5833 29.6875 39.5833 18.75C39.5833 10.6875 33.0625 4.16663 25 4.16663ZM14.5833 18.75C14.5833 13 19.25 8.33329 25 8.33329C30.75 8.33329 35.4166 13 35.4166 18.75C35.4166 24.75 29.4166 33.7291 25 39.3333C20.6666 33.7708 14.5833 24.6875 14.5833 18.75ZM19.7916 18.75C19.7916 15.8735 22.1235 13.5416 25 13.5416C26.8607 13.5416 28.5801 14.5343 29.5105 16.1458C30.4409 17.7573 30.4409 19.7427 29.5105 21.3541C28.5801 22.9656 26.8607 23.9583 25 23.9583C22.1235 23.9583 19.7916 21.6264 19.7916 18.75Z" fill="#726A5F"/>
</svg>
