<svg width="21" height="21" viewBox="0 0 21 21" fill="none" xmlns="http://www.w3.org/2000/svg">
<path fill-rule="evenodd" clip-rule="evenodd" d="M13.8356 13.0369H14.7244L20.3381 18.6619L18.6619 20.3381L13.0369 14.7244V13.8356L12.7331 13.5206C11.4506 14.6231 9.78563 15.2869 7.97438 15.2869C3.93563 15.2869 0.66188 12.0131 0.66188 7.97437C0.66188 3.93562 3.93563 0.661865 7.97438 0.661865C12.0131 0.661865 15.2869 3.93562 15.2869 7.97437C15.2869 9.78561 14.6231 11.4506 13.5206 12.7331L13.8356 13.0369ZM2.91188 7.97437C2.91188 10.7756 5.17313 13.0369 7.97438 13.0369C10.7756 13.0369 13.0369 10.7756 13.0369 7.97437C13.0369 5.17312 10.7756 2.91187 7.97438 2.91187C5.17313 2.91187 2.91188 5.17312 2.91188 7.97437Z" fill="#726A5F"/>
</svg>